<svg width="422" height="465" viewBox="0 0 422 465" fill="none" xmlns="http://www.w3.org/2000/svg">
<path d="M64.9739 90.03C64.9739 192.337 27.3042 262.592 27.3042 311.89C27.3042 361.187 47.448 464.721 208.651 464.721C369.853 464.721 393.508 325.438 393.508 271.215C393.519 17.3044 64.9739 -91.1553 64.9739 90.03Z" fill="#E27344" fill-opacity="0.1"/>
<path d="M123.639 298.585L106.134 442.875H100.394L117.897 298.585H123.639Z" fill="#FFDAB9"/>
<path d="M46.2857 298.582L44.3154 314.81L28.7821 442.872H23.0405L38.6523 314.174L40.544 298.582H46.2857Z" fill="#FFDAB9"/>
<path d="M123.639 442.872H117.897L115.476 422.916L112.607 399.255L103.166 321.428L100.394 298.582H106.136L108.986 322.08L115.476 375.591L118.347 399.252L123.639 442.872Z" fill="#FFDAB9"/>
<path d="M200.993 442.872H195.251L181.666 330.878H181.664L177.748 298.582H183.489L187.483 331.501L200.993 442.872Z" fill="#FFDAB9"/>
<path d="M46.5659 202.129H40.8241V289.41H46.5659V202.129Z" fill="#FFDAB9"/>
<path d="M124.575 202.129H118.835V289.41H124.575V202.129Z" fill="#FFDAB9"/>
<path d="M185.899 289.41H107.021C109.569 289.41 111.635 291.464 111.635 293.998C111.635 296.531 109.569 298.585 107.021 298.585H185.899C188.447 298.585 190.513 296.531 190.513 293.998C190.511 291.463 188.447 289.41 185.899 289.41Z" fill="#FFDAB9"/>
<path d="M111.633 293.996C111.633 291.463 109.567 289.409 107.019 289.409H46.6872H38.9155C36.3676 289.409 34.3016 291.463 34.3016 293.996C34.3016 296.529 36.3676 298.584 38.9155 298.584H46.6872H107.021C109.569 298.584 111.633 296.529 111.633 293.996Z" fill="#FFCC00"/>
<path d="M129.266 136.444H36.1333C32.5824 136.444 29.703 139.307 29.703 142.838V195.737C29.703 199.267 32.5824 202.13 36.1333 202.13H129.266C132.817 202.13 135.697 199.267 135.697 195.737V142.838C135.697 139.306 132.817 136.444 129.266 136.444Z" fill="#FFDAB9"/>
<path d="M46.2857 298.582L44.3171 314.81C42.2426 314.577 40.3475 314.365 38.6541 314.176L40.5458 298.582H46.2857Z" fill="#FFCC00"/>
<path d="M106.136 298.582L108.986 322.08C107.036 321.863 105.095 321.643 103.166 321.428L100.394 298.582H106.136Z" fill="#FFCC00"/>
<path d="M187.483 331.501C185.631 331.304 183.688 331.097 181.666 330.878H181.664L177.748 298.582H183.489L187.483 331.501Z" fill="#FFCC00"/>
<path d="M40.8241 202.129H46.5659V214.184L40.8241 213.552V202.129Z" fill="#AEC3FF"/>
<path d="M124.576 202.129V222.77L118.836 222.139V202.129H124.576Z" fill="#AEC3FF"/>
<path d="M155.804 56.166C133.435 59.8733 105.564 51.5954 102.07 46.3232C93.9714 58.5939 89.8566 58.2099 89.8566 58.2099V67.4121L88.0281 65.5941C87.4642 64.3266 86.5688 63.0676 85.2291 63.0676C77.864 63.0676 77.3497 83.436 89.7455 84.6134C89.9899 85.412 90.2428 86.1578 90.5009 86.8341V119.436H118.461V106.613C120.34 107.126 122.141 107.42 123.796 107.42C134.819 107.42 153.604 91.3026 155.734 65.5941C155.862 60.7432 155.804 56.166 155.804 56.166Z" fill="#FCBEB7"/>
<path d="M121.867 21.2715C102.584 21.2715 98.7274 31.4964 98.7274 31.4964C90.4993 31.4964 77.9019 46.4516 85.4874 63.0668L85.5267 63.1059L89.8585 67.413V58.2109C89.8585 58.2109 93.9717 58.5949 102.072 46.3242C105.566 51.5947 133.439 59.8726 155.806 56.1669C155.806 56.1669 155.864 60.7442 155.736 65.595C155.736 65.6001 155.736 65.6052 155.736 65.6103C164.088 41.5787 147.32 21.2715 121.867 21.2715Z" fill="#311643"/>
<path d="M113.575 72.6128C112.723 72.6128 112.032 71.9264 112.032 71.0786V68.2139C112.032 67.3661 112.723 66.6797 113.575 66.6797C114.428 66.6797 115.118 67.3661 115.118 68.2139V71.0786C115.118 71.9264 114.426 72.6128 113.575 72.6128Z" fill="#311643"/>
<path d="M142.178 72.6128C141.325 72.6128 140.635 71.9264 140.635 71.0786V68.2139C140.635 67.3661 141.325 66.6797 142.178 66.6797C143.031 66.6797 143.721 67.3661 143.721 68.2139V71.0786C143.721 71.9264 143.031 72.6128 142.178 72.6128Z" fill="#311643"/>
<path d="M124.917 90.5151C122.164 90.5151 120.29 89.4854 119.153 88.5475C117.721 87.365 117.127 86.0754 117.101 86.021C116.94 85.6676 117.099 85.2514 117.455 85.0916C117.81 84.9319 118.227 85.0899 118.389 85.4416C118.47 85.6149 120.425 89.6927 126.106 89.0386C126.494 88.9944 126.845 89.2713 126.891 89.657C126.937 90.0427 126.658 90.391 126.27 90.4369C125.797 90.4913 125.346 90.5151 124.917 90.5151Z" fill="#311643"/>
<path d="M142.178 54.6792C136.609 54.6792 132.01 58.8895 131.431 64.2755C128.403 62.8585 125.73 63.6265 124.321 64.2704C123.74 58.8861 119.143 54.6792 113.576 54.6792C107.615 54.6792 102.767 59.5011 102.767 65.4258C102.767 71.3504 107.617 76.1724 113.576 76.1724C119.401 76.1724 124.163 71.5645 124.374 65.8217C125.269 65.317 128.145 64.0105 131.378 65.8302C131.593 71.5679 136.354 76.1724 142.176 76.1724C148.137 76.1724 152.985 71.3504 152.985 65.4258C152.985 59.5011 148.138 54.6792 142.178 54.6792ZM113.576 74.7673C108.394 74.7673 104.18 70.5774 104.18 65.4258C104.18 60.2742 108.394 56.0843 113.576 56.0843C118.757 56.0843 122.971 60.2742 122.971 65.4258C122.971 70.5774 118.755 74.7673 113.576 74.7673ZM142.178 74.7673C136.997 74.7673 132.783 70.5774 132.783 65.4258C132.783 60.2742 136.997 56.0843 142.178 56.0843C147.357 56.0843 151.573 60.2742 151.573 65.4258C151.573 70.5774 147.357 74.7673 142.178 74.7673Z" fill="white"/>
<path d="M118.459 119.435V106.612C112.137 104.884 104.939 100.652 99.5288 96.6167L118.459 119.435Z" fill="#F9AFAB"/>
<path d="M197.901 338.633L192.062 337.838L186.534 292.266H192.275L197.901 338.633Z" fill="#EBEDF4"/>
<path d="M182.395 164.479L187.465 174.143H160.442L182.395 164.479Z" fill="#FCBEB7"/>
<path d="M130.635 417.674V438.481C130.635 440.907 132.614 442.875 135.054 442.875H194.408C194.972 442.875 195.43 442.42 195.43 441.859V438.024C195.43 436.174 194.345 434.493 192.653 433.722L158.333 417.674H130.635Z" fill="#444444"/>
<path d="M130.635 405.837L130.65 417.674H158.331L160.247 405.837H130.635Z" fill="#FCBEB7"/>
<path d="M118.412 107.343L155.994 124.222C161.162 126.543 165.367 130.564 167.899 135.609L182.396 164.479L160.442 174.144L162.26 237.96H52.861L57.6372 178.359L37.8524 178.486V145.876C37.8524 135.775 43.9563 126.665 53.3309 122.772L90.4997 107.341C90.5014 107.343 106.739 117.937 118.412 107.343Z" fill="#824E00"/>
<path d="M126.24 110.721C120.585 115.266 113.596 117.733 106.224 117.733C98.4166 117.733 90.7849 114.712 84.968 109.639L83.7718 110.135C89.8484 115.585 97.9773 118.858 106.222 118.858C114.054 118.858 121.472 116.166 127.403 111.224L126.24 110.721Z" fill="white"/>
<path d="M188.884 417.674V438.481C188.884 440.907 190.862 442.875 193.303 442.875H252.657C253.223 442.875 253.679 442.42 253.679 441.859V438.024C253.679 436.174 252.594 434.493 250.902 433.722L216.582 417.674H188.884Z" fill="#444444"/>
<path d="M188.884 405.837L188.897 417.674H216.58L218.494 405.837H188.884Z" fill="#FCBEB7"/>
<path d="M111.107 237.961L111.105 239.072C111.083 267.023 133.866 289.694 161.98 289.694H185.613L188.884 405.835H218.496L240.33 267.358C242.765 251.917 230.757 237.961 215.038 237.961H111.107Z" fill="#373737"/>
<path d="M240.642 263.477C238.093 267.186 233.802 269.62 228.94 269.62C221.112 269.62 214.767 263.312 214.767 255.528C214.767 248.054 220.618 241.939 228.016 241.467C235.653 245.942 240.683 254.232 240.642 263.477Z" fill="#444444"/>
<path d="M182.392 262.935L185.613 289.697H166.223L182.392 262.935Z" fill="#FFCC00"/>
<path d="M52.8571 237.961V239.072C52.8349 267.023 75.6188 289.694 103.732 289.694H127.366L130.636 405.835H160.249L182.082 267.358C184.517 251.917 172.51 237.961 156.79 237.961H52.8571Z" fill="#373737"/>
<path d="M37.8538 178.487L38.9064 214.631C39.1901 224.399 47.237 232.173 57.0662 232.173H120.346L124.594 217.457L68.7768 208.309L68.3821 178.29L37.8538 178.487Z" fill="#FCBEB7"/>
<path d="M68.382 178.292L76.9518 209.65L68.7767 208.31L68.382 178.292Z" fill="#D37B4A"/>
<path d="M116.797 216.179L106.82 232.172H120.346L124.594 217.456L116.797 216.179Z" fill="#F9AFAB"/>
<path d="M225.535 174.144H143.022C139.515 174.144 136.433 176.453 135.466 179.803L120.346 232.17H86.8868C85.2788 232.17 83.975 233.466 83.975 235.065C83.975 236.664 85.2788 237.96 86.8868 237.96H118.675H128.782H217.546L233.091 184.117C234.533 179.122 230.762 174.144 225.535 174.144Z" fill="#FFA07A"/>
<path d="M182.392 262.934C179.895 266.947 175.428 269.62 170.333 269.62C162.504 269.62 156.16 263.311 156.16 255.528C156.16 247.943 162.185 241.757 169.738 241.448C177.243 245.835 182.238 253.899 182.392 262.934Z" fill="#444444"/>
<path d="M183.318 208.358C183.535 205.913 182.344 203.811 180.659 203.663C178.975 203.516 177.434 205.379 177.217 207.825C177.001 210.27 178.191 212.372 179.876 212.519C181.561 212.666 183.102 210.804 183.318 208.358Z" fill="#FFCC00"/>
<path d="M167.386 134.642C166.064 135.527 164.471 136.044 162.757 136.044C158.174 136.044 154.459 132.348 154.459 127.791C154.459 126.407 154.801 125.102 155.407 123.957L155.994 124.22C160.828 126.391 164.818 130.051 167.386 134.642Z" fill="#4A62D3"/>
<path d="M387.658 175.559V173.083C387.658 172.319 387.032 171.697 386.263 171.697H328.483C325.568 171.697 323.205 174.047 323.205 176.945V181.166C323.205 184.064 325.568 186.414 328.483 186.414H386.263C387.032 186.414 387.658 185.794 387.658 185.028V182.553C387.658 181.788 387.032 181.166 386.263 181.166H330.605C329.432 181.166 328.481 180.221 328.481 179.055C328.481 177.889 329.432 176.943 330.605 176.943H386.263C387.032 176.945 387.658 176.325 387.658 175.559Z" fill="#974800"/>
<path d="M385.161 176.945V181.166H330.605C329.432 181.166 328.481 180.22 328.481 179.055C328.481 177.889 329.432 176.943 330.605 176.943H385.161V176.945Z" fill="#FDFDFD"/>
<path d="M383.529 160.84V158.365C383.529 157.601 382.904 156.979 382.135 156.979H332.61C329.693 156.979 327.33 159.329 327.33 162.227V166.448C327.33 169.346 329.693 171.696 332.61 171.696H382.135C382.904 171.696 383.529 171.074 383.529 170.31V167.833C383.529 167.068 382.904 166.446 382.135 166.446H334.733C333.561 166.446 332.611 165.501 332.611 164.335C332.611 163.169 333.562 162.223 334.733 162.223H382.135C382.904 162.227 383.529 161.605 383.529 160.84Z" fill="#FFA07A"/>
<path d="M381.691 162.225V166.447H334.731C333.559 166.447 332.61 165.501 332.61 164.335C332.61 163.169 333.561 162.224 334.731 162.224L381.691 162.225Z" fill="#FDFDFD"/>
<path d="M341.552 196.128L310.935 442.253H304.855L335.472 196.128H341.552Z" fill="#FFDAB9"/>
<path d="M422 442.253H415.921L389.728 231.69L385.304 196.128H391.383L395.744 231.185L422 442.253Z" fill="#FFDAB9"/>
<path d="M36.6963 196.128L28.5057 261.978L6.07941 442.253H0L22.3614 262.494L30.6169 196.128H36.6963Z" fill="#FFDAB9"/>
<path d="M117.144 442.253H111.065L88.0191 256.988L80.4482 196.128H86.5276L94.0354 256.483L117.144 442.253Z" fill="#FFDAB9"/>
<path d="M30.6169 196.128H36.6963L28.5057 261.978L22.3615 262.494L30.6169 196.128Z" fill="#FFCC00"/>
<path d="M86.5276 196.128L94.0354 256.483L88.0191 256.988L80.4482 196.128H86.5276Z" fill="#FFCC00"/>
<path d="M395.744 231.185L389.728 231.69L385.304 196.128H391.383L395.744 231.185Z" fill="#FFCC00"/>
<path d="M408.311 196.128H97.4686V186.416H408.311C410.556 186.416 412.375 188.224 412.375 190.456V192.088C412.377 194.319 410.556 196.128 408.311 196.128Z" fill="#FFDAB9"/>
<path d="M97.4688 196.128H15.2229C12.9785 196.128 11.1592 194.319 11.1592 192.088V190.456C11.1592 188.224 12.9785 186.416 15.2229 186.416H97.4688V196.128Z" fill="#FFCC00"/>
<path d="M317.025 161.533H146.441L165.459 59.5972H336.043L317.025 161.533Z" fill="#FFDAB9"/>
<path d="M230.897 116.51H250.056L275.28 186.415H241.811L230.897 116.51Z" fill="#FFA07A"/>
<path d="M230.206 181.927H173.266C172.229 181.927 171.387 182.763 171.387 183.793V184.547C171.387 185.579 172.229 186.415 173.266 186.415H230.206C231.243 186.415 232.084 185.579 232.084 184.547V183.793C232.084 182.763 231.243 181.927 230.206 181.927Z" fill="#FFCC00"/>
<path d="M230.897 116.51V161.533H237.926L230.897 116.51Z" fill="#FFC6AE"/>
</svg>
